<?xml version="1.0" standalone="no"?><!DOCTYPE svg PUBLIC "-//W3C//DTD SVG 1.1//EN" "http://www.w3.org/Graphics/SVG/1.1/DTD/svg11.dtd"><svg t="1631957204153" class="icon" viewBox="0 0 1024 1024" version="1.1" xmlns="http://www.w3.org/2000/svg" p-id="3275" xmlns:xlink="http://www.w3.org/1999/xlink" width="200" height="200"><defs><style type="text/css"></style></defs><path d="M605.556364 972.986182H422.446545c-178.082909 0-318.789818 0-318.789818-97.838546v-17.780363c0-172.590545 142.987636-313.018182 318.789818-313.018182h183.109819c175.662545 0 318.650182 140.427636 318.650181 313.018182v17.826909c-0.046545 97.792-147.688727 97.792-318.650181 97.792z m-183.109819-358.818909c-137.262545 0-248.971636 109.102545-248.971636 243.2v17.826909c0 28.020364 168.122182 28.020364 248.971636 28.020363h183.109819c61.533091 0 248.832 0 248.832-28.020363v-17.826909c0-134.097455-111.616-243.2-248.832-243.2H422.446545z m82.292364-71.773091c-140.381091 0-254.603636-112.267636-254.603636-250.181818S364.357818 42.030545 504.738909 42.030545s254.603636 112.221091 254.603636 250.181819-114.222545 250.181818-254.603636 250.181818zM320 292.212364c0 99.421091 82.897455 180.363636 184.785455 180.363636s184.785455-80.896 184.785454-180.363636-82.897455-180.363636-184.785454-180.363637-184.785455 80.942545-184.785455 180.363637z" p-id="3276"></path></svg>