<?xml version="1.0" standalone="no"?><!DOCTYPE svg PUBLIC "-//W3C//DTD SVG 1.1//EN" "http://www.w3.org/Graphics/SVG/1.1/DTD/svg11.dtd"><svg t="1631959072431" class="icon" viewBox="0 0 1024 1024" version="1.1" xmlns="http://www.w3.org/2000/svg" p-id="3445" xmlns:xlink="http://www.w3.org/1999/xlink" width="200" height="200"><defs><style type="text/css"></style></defs><path d="M188 400c-16.569 0-30 13.431-30 30v440c0 16.569 13.431 30 30 30h648c16.569 0 30-13.431 30-30V430c0-16.569-13.431-30-30-30H188z m0-60h648c49.706 0 90 40.294 90 90v440c0 49.706-40.294 90-90 90H188c-49.706 0-90-40.294-90-90V430c0-49.706 40.294-90 90-90z" p-id="3446" fill="#1aad19"></path><path d="M799 351h-60c0-125.369-101.631-227-227-227S285 225.631 285 351h-60c0-158.506 128.494-287 287-287s287 128.494 287 287zM432 605a80 80 0 1 0 160 0 80 80 0 1 0-160 0z" p-id="3447" fill="#1aad19"></path><path d="M482 576.5c0-16.569 13.431-30 30-30 16.569 0 30 13.431 30 30v218.83c0 16.568-13.431 30-30 30-16.569 0-30-13.432-30-30V576.5z" p-id="3448" fill="#1aad19"></path></svg>