<?xml version="1.0" standalone="no"?><!DOCTYPE svg PUBLIC "-//W3C//DTD SVG 1.1//EN" "http://www.w3.org/Graphics/SVG/1.1/DTD/svg11.dtd"><svg t="1630744210696" class="icon" viewBox="0 0 1024 1024" version="1.1" xmlns="http://www.w3.org/2000/svg" p-id="2477" xmlns:xlink="http://www.w3.org/1999/xlink" width="200" height="200"><defs><style type="text/css"></style></defs><path d="M66.488889 211.781818h891.022222c28.198788 0 50.980202-22.238384 50.980202-49.648485 0-27.397172-22.768485-49.648485-50.980202-49.648485H66.488889C38.341818 112.484848 15.508687 134.723232 15.508687 162.133333s22.833131 49.648485 50.980202 49.648485z m891.009293 248.242424H66.488889C38.277172 460.024242 15.508687 482.262626 15.508687 509.672727s22.768485 49.648485 50.980202 49.648485h891.022222c28.198788 0 50.980202-22.238384 50.980202-49.648485-0.012929-27.410101-22.923636-49.648485-50.993131-49.648485z m0 351.63798H66.488889c-28.134141 0-50.980202 22.238384-50.980202 49.648485s22.833131 49.648485 50.980202 49.648485h891.022222c28.198788 0 50.980202-22.238384 50.980202-49.648485-0.012929-27.397172-22.781414-49.648485-50.993131-49.648485z m0 0" p-id="2478" fill="#ffffff"></path></svg>